<svg xmlns="http://www.w3.org/2000/svg" width="590.268" height="354.897" viewBox="0 0 590.268 354.897">
  <g id="undraw_message_sent_1030" transform="translate(0 -0.017)">
    <path id="Path_1" data-name="Path 1" d="M731.465,347.783l5.061-.875c.486-.085.968-.189,1.453-.277a41.549,41.549,0,0,1,26.529-76.592l-6.634,15.786L773.591,272.1a.71.71,0,0,1,.107.036,41.551,41.551,0,0,1,25.387,53c-.263.748-.576,1.463-.876,2.186a49.676,49.676,0,0,0,12.165-8.148c7.027-6.734,10.878-16.027,15.181-27.475,8.525-22.687,16.732-45.7,24.612-68.769a41.532,41.532,0,0,1-19.417-50.3c.422-1.2.911-2.354,1.43-3.489.13-.284.26-.566.4-.846.527-1.088,1.083-2.153,1.693-3.176.1-.168.212-.325.313-.49q.8-1.293,1.681-2.51c.219-.3.438-.608.665-.906.668-.873,1.36-1.723,2.089-2.535.244-.271.5-.525.753-.79q.841-.887,1.727-1.72c.312-.292.62-.587.94-.869.082-.072.159-.151.241-.223l.011.016a41.522,41.522,0,0,1,53.126-1.193l-8.633,20.543,15.539-13.561a41.321,41.321,0,0,1,1.536,48.936l.043.014c-.17.249-.362.478-.537.722q-.492.689-1.006,1.354c-.442.568-.9,1.118-1.368,1.66-.353.409-.7.821-1.069,1.215-.538.576-1.1,1.121-1.669,1.663-.331.316-.648.648-.989.953q-1.34,1.2-2.772,2.271c-.335.251-.688.472-1.03.712-.67.472-1.344.936-2.04,1.367-.432.267-.875.511-1.316.762-.638.364-1.281.716-1.937,1.045-.465.233-.934.455-1.407.67-.674.307-1.356.592-2.046.863-.463.182-.923.366-1.392.531-.774.273-1.559.509-2.349.736-.4.115-.791.246-1.193.348-1.185.3-2.383.56-3.6.757-.228.037-.46.051-.689.085-1,.146-2.015.264-3.033.336-.438.031-.878.035-1.318.052-.823.032-1.647.048-2.475.031-.483-.01-.966-.035-1.45-.063q-1.21-.068-2.422-.211c-.478-.055-.954-.11-1.432-.183-.866-.131-1.73-.3-2.595-.491-.057-.012-.114-.02-.17-.032q-4.989,14.6-10.162,29.131a41.523,41.523,0,0,1,60.209,4.963l-14.365,15.887,19.45-7.764a41.408,41.408,0,0,1,1.662,31.631,40.76,40.76,0,0,1-5.278,10.211,41.534,41.534,0,0,1-75.049-18.223c-.365.976-.719,1.965-1.085,2.94-3.8,10.1-8.521,22.67-18.008,31.757-6.431,6.16-14.342,10.068-21.933,13.372q-7.414,3.227-15.026,5.966a41.643,41.643,0,0,1-18.6,5.926c-8.007,2.224-16.115,4.081-24.3,5.514l-5.1.88c-4.586.786-9.288,1.594-13.955,2.526.672.2,1.345.39,2.013.625a41.564,41.564,0,0,1,27.747,40.437l-31.99,9.819,28.947,4.6a41.57,41.57,0,0,1-69.266,12.293q.441,1.477.885,2.949c.588,1.95,1.171,3.89,1.73,5.81,7.617,26.174,4.339,46.762-9.232,57.971l-7.364-8.914c13.208-10.911,9.11-33.394,5.495-45.827-.55-1.886-1.124-3.791-1.7-5.707-4.961-16.482-10.585-35.163-3.3-52.33C674.4,357.554,706.042,352.136,731.465,347.783Z" transform="translate(-329.894 -144.859)" fill="#f2f2f2"/>
    <path id="Path_2" data-name="Path 2" d="M586.084,568.905H361.944a27.714,27.714,0,0,1-27.714-27.714V438.5a10.979,10.979,0,0,1,3.426-7.968L456.428,317.946a25.563,25.563,0,0,1,35.172,0L604.843,425.291a28.7,28.7,0,0,1,8.955,20.828v95.072A27.714,27.714,0,0,1,586.084,568.905Z" transform="translate(-193.889 -214.2)" fill="#3f3d56"/>
    <path id="Path_3" data-name="Path 3" d="M240.954,387.992H518.193V499.975a16.735,16.735,0,0,1-16.735,16.735H257.689a16.735,16.735,0,0,1-16.735-16.735Z" transform="translate(-100.614 -162.005)" opacity="0.1"/>
    <path id="Path_4" data-name="Path 4" d="M333.73,521.351" transform="translate(-193.681 -302.062)" fill="none" stroke="#3f3d56" stroke-miterlimit="10" stroke-width="1"/>
    <path id="Path_5" data-name="Path 5" d="M509.636,395.942V509.255H303.454V395.942l103.091,49.827Z" transform="translate(-126.712 -165.325)" opacity="0.1"/>
    <path id="Path_6" data-name="Path 6" d="M473.514,591.2,341.421,527.351a5.36,5.36,0,0,0-7.692,4.825V642.024a16.735,16.735,0,0,0,16.735,16.735h246.1A16.735,16.735,0,0,0,613.3,642.024V534.058a6.54,6.54,0,0,0-9.386-5.888Z" transform="translate(-193.681 -304.344)" fill="#3f3d56"/>
    <path id="Path_13" data-name="Path 13" d="M0,0H479.927" transform="translate(35.502 354.414)" fill="none" stroke="#3f3d56" stroke-width="1" opacity="0.08"/>
    <path id="Path_7" data-name="Path 7" d="M93.275,630.212c0,34.341,21.543,62.128,48.167,62.128" transform="translate(-93.275 -347.519)" fill="#46455b"/>
    <path id="Path_8" data-name="Path 8" d="M175.975,691.84c0-34.726,24.041-62.826,53.752-62.826" transform="translate(-127.808 -347.018)" fill="#4d00d2"/>
    <path id="Path_9" data-name="Path 9" d="M123.239,635.557c0,32.62,13.738,59.015,30.715,59.015" transform="translate(-105.787 -349.751)" fill="#4d00d2"/>
    <path id="Path_10" data-name="Path 10" d="M175.975,679.329c0-44.373,27.788-80.278,62.128-80.278" transform="translate(-127.808 -334.507)" fill="#46455b"/>
    <path id="Path_11" data-name="Path 11" d="M158.577,734.988s6.831-.21,8.89-1.676,10.508-3.216,11.018-.865,10.266,11.693,2.553,11.755-17.919-1.2-19.974-2.453S158.577,734.988,158.577,734.988Z" transform="translate(-120.543 -389.728)" fill="#a8a8a8"/>
    <path id="Path_12" data-name="Path 12" d="M181.176,746.023c-7.712.062-17.919-1.2-19.974-2.453-1.565-.953-2.188-4.373-2.4-5.951l-.228.009s.433,5.509,2.487,6.761,12.262,2.515,19.974,2.453c2.226-.018,3-.81,2.953-1.983C183.682,745.568,182.833,746.01,181.176,746.023Z" transform="translate(-120.543 -392.368)" opacity="0.2"/>
    <ellipse id="Ellipse_2" data-name="Ellipse 2" cx="23.88" cy="23.923" rx="23.88" ry="23.923" transform="translate(161.308 117.071)" fill="#fff"/>
    <circle id="Ellipse_5" data-name="Ellipse 5" cx="28" cy="28" r="28" transform="translate(158.41 141.873)" fill="#57b894"/>
    <path id="Path_14" data-name="Path 14" d="M11.508-23.772l5.67-1.848,1.092,3.36-5.712,1.848L16.17-15.5l-2.9,2.1L9.66-18.354l-3.528,4.83L3.318-15.666,6.93-20.412,1.176-22.386l1.092-3.36L7.98-23.772v-5.964h3.528Z" transform="translate(176.41 191.873)" fill="#fff"/>
  </g>
</svg>
