<svg xmlns="http://www.w3.org/2000/svg" width="779" height="568.975" viewBox="0 0 779 568.975"><g transform="translate(-233.293 -66.959)"><path d="M472.647,398.128s83,4,88,33-97,3-97,3Z" transform="translate(-93.853 -131.694)" fill="#a0616a"/><rect width="105" height="2" transform="translate(824.293 116.934)" fill="#3f3d56"/><rect width="333" height="2" transform="translate(409.293 116.934)" fill="#3f3d56"/><path d="M307.293,248.934l-15.881,57.225,26.881-55.337Z" opacity="0.1"/><rect width="384" height="401" transform="translate(233.293 234.934)" fill="#d0cde1"/><path d="M0,0H284V40H0Z" transform="translate(273.293 322.934)" fill="#4d00d2"/><rect width="185.994" height="20" transform="translate(322.116 428.934)" fill="#4d00d2"/><rect width="185.994" height="20" transform="translate(322.475 463.934)" fill="#4d00d2"/><rect width="92.997" height="20" transform="translate(322.834 498.934)" fill="#4d00d2"/><rect width="43" height="20" transform="translate(519.293 599.934)" fill="#4d00d2"/><circle cx="41" cy="41" r="41" transform="translate(368.293 76.934)" fill="#d0cde1"/><circle cx="41" cy="41" r="41" transform="translate(555.293 76.934)" fill="#3f3d56"/><path d="M877.147,267.628a42,42,0,1,1,42-42,42,42,0,0,1-42,42Zm0-82a40,40,0,1,0,40,40,40,40,0,0,0-40-40Z" transform="translate(-93.853 -107.694)" fill="#3f3d56"/><path d="M1064.146,267.628a42,42,0,1,1,42-42A42,42,0,0,1,1064.146,267.628Zm0-82a40,40,0,1,0,40,40,40,40,0,0,0-40-40Z" transform="translate(-93.853 -107.694)" fill="#3f3d56"/><path d="M403.641,111.377,385.873,87.688l6.4-4.8L404.506,99.2l56.239-56.238,5.656,5.656Z" transform="translate(0 24)" fill="#3f3d56"/></g></svg>