<svg xmlns="http://www.w3.org/2000/svg" width="713.367" height="781.276" viewBox="0 0 713.367 781.276">
  <g id="referral-illustration" transform="translate(0 0)">
    <path id="Path_16" data-name="Path 16" d="M872.748,765.287l-229.215.759C582.723,747.774,532.9,684.31,532.586,589.159a269.452,269.452,0,0,1,3.238-42.812l184.622-41.478L862.87,472.874a283.267,283.267,0,0,1,29.256,30.419L755.936,575.206l-64.247,33.926,72.194-24.907,149.843-51.694A363.364,363.364,0,0,1,938.643,577.2l-45.211,46.725,51.144-33.482q.328.769.653,1.541C977.643,668.937,937.426,765.073,872.748,765.287Z" transform="translate(-243.316 -59.362)" fill="#f2f2f2"/>
    <path id="Path_17" data-name="Path 17" d="M835.08,451.338c-34.663,9.955-77.279,22.533-121.095,35.607-63.351,18.908-129.209,38.861-177.155,53.447l.031-.171A65.9,65.9,0,0,1,549.021,512c35.517-46.179,80.743-78.439,131.077-90.419h0a188.905,188.905,0,0,1,43.2-5.154C763.349,416.291,801.281,428.851,835.08,451.338Z" transform="translate(-243.316 -59.362)" fill="#f2f2f2"/>
    <ellipse id="Ellipse_1" data-name="Ellipse 1" cx="228" cy="17" rx="228" ry="17" transform="translate(132.217 693.536)" fill="#3f3d56"/>
    <path id="Path_18" data-name="Path 18" d="M569.533,488.16c0,122.839-73.026,165.73-163.108,165.73S243.316,611,243.316,488.16,406.425,209.049,406.425,209.049,569.533,365.321,569.533,488.16Z" transform="translate(-243.316 -59.362)" fill="#f2f2f2"/>
    <path id="Path_19" data-name="Path 19" d="M157.167,575.737l1.67-102.8,69.521-127.185L159.1,456.8l.751-46.226,47.913-92.017-47.715,79.784h0l1.351-83.139,51.307-73.257-51.1,60.183.844-152.447-5.3,201.813.436-8.326-52.164-79.845,51.327,95.827-4.86,92.852-.145-2.465L91.61,365.517l59.954,92.733-.608,11.612-.109.174.05.954L138.566,706.562h16.475l1.977-121.678,59.807-92.5Z" fill="#3f3d56"/>
    <path id="Path_20" data-name="Path 20" d="M764.219,88.492v648.2a29.139,29.139,0,0,1-29.13,29.11H471.939a29.079,29.079,0,0,1-29.13-29.11V88.492a29.128,29.128,0,0,1,29.132-29.13h39.378v5.05A23.988,23.988,0,0,0,535.3,88.4H669.14a23.789,23.789,0,0,0,14.22-4.68,22.288,22.288,0,0,0,2.36-1.98,23.917,23.917,0,0,0,7.4-17.33v-5.05h41.97a29.121,29.121,0,0,1,29.13,29.13Z" transform="translate(-243.316 -59.362)" fill="#3f3d56"/>
    <path id="Path_21" data-name="Path 21" d="M591.543,313.163c.009,18.089-10.742,24.41-24.006,24.416q-.462,0-.92-.01-.922-.019-1.825-.083c-11.972-.842-21.277-7.477-21.285-24.3-.008-17.41,22.232-39.391,23.9-41.017h0l.1-.093S591.534,295.075,591.543,313.163Z" transform="translate(-243.316 -59.362)" fill="#4d00d2"/>
    <path id="Path_22" data-name="Path 22" d="M566.661,334.812l8.779-12.278-8.8,13.625-.023,1.409q-.922-.019-1.825-.083l.938-18.1-.007-.14.016-.027.089-1.71-8.835-13.651,8.861,12.37.022.363.708-13.673-7.565-14.107,7.657,11.7.731-28.348,0-.094v.093l-.113,22.356,7.518-8.866-7.55,10.792-.193,12.243,7.022-11.752-7.049,13.552-.107,6.808,10.19-16.359L566.9,319.674Z" transform="translate(-243.316 -59.362)" fill="#3f3d56"/>
    <path id="Path_23" data-name="Path 23" d="M474.2,484.7h-228v75.293l19.089-19.088H474.2Z" fill="#4d00d2"/>
    <rect id="Rectangle_1" data-name="Rectangle 1" width="128.267" height="10.4" transform="translate(297.065 498.348)" fill="#fff"/>
    <rect id="Rectangle_2" data-name="Rectangle 2" width="128.267" height="10.4" transform="translate(297.065 513.948)" fill="#fff"/>
    <path id="Path_24" data-name="Path 24" d="M246.2,382.2h228v75.293L455.11,438.406H246.2Z" fill="#4d00d2"/>
    <rect id="Rectangle_3" data-name="Rectangle 3" width="128.267" height="10.4" transform="translate(285.065 396.848)" fill="#fff"/>
    <rect id="Rectangle_4" data-name="Rectangle 4" width="128.267" height="10.4" transform="translate(285.065 412.448)" fill="#fff"/>
    <path id="Path_25" data-name="Path 25" d="M480.515,205.808V389.4h246V205.808Zm31.7,2.311a3.962,3.962,0,1,1-3.962,3.962,3.962,3.962,0,0,1,3.962-3.962Zm-23.775,7.925a3.962,3.962,0,1,1,3.962-3.962,3.962,3.962,0,0,1-3.962,3.962Zm7.925-3.962a3.962,3.962,0,1,1,3.962,3.962,3.962,3.962,0,0,1-3.962-3.962ZM632.737,337.889H500.327v-98.4H632.737Z" transform="translate(-243.316 -59.362)" fill="#f2f2f2"/>
    <rect id="Rectangle_5" data-name="Rectangle 5" width="7.925" height="0.991" transform="translate(469.99 149.748)" fill="#fff"/>
    <rect id="Rectangle_6" data-name="Rectangle 6" width="7.925" height="0.991" transform="translate(469.99 152.72)" fill="#fff"/>
    <rect id="Rectangle_7" data-name="Rectangle 7" width="7.925" height="0.991" transform="translate(469.99 155.691)" fill="#fff"/>
    <rect id="Rectangle_8" data-name="Rectangle 8" width="59.766" height="2.972" transform="translate(410.224 178.475)" fill="#fff"/>
    <rect id="Rectangle_9" data-name="Rectangle 9" width="59.766" height="2.972" transform="translate(410.224 188.712)" fill="#fff"/>
    <rect id="Rectangle_10" data-name="Rectangle 10" width="59.766" height="2.972" transform="translate(410.224 198.948)" fill="#fff"/>
    <rect id="Rectangle_11" data-name="Rectangle 11" width="59.766" height="2.972" transform="translate(410.224 209.184)" fill="#fff"/>
    <rect id="Rectangle_12" data-name="Rectangle 12" width="59.766" height="2.972" transform="translate(410.224 219.42)" fill="#fff"/>
    <rect id="Rectangle_13" data-name="Rectangle 13" width="59.766" height="2.972" transform="translate(410.224 229.656)" fill="#fff"/>
    <rect id="Rectangle_14" data-name="Rectangle 14" width="59.766" height="2.972" transform="translate(410.224 239.893)" fill="#fff"/>
    <rect id="Rectangle_15" data-name="Rectangle 15" width="59.766" height="2.972" transform="translate(410.224 250.129)" fill="#fff"/>
    <rect id="Rectangle_16" data-name="Rectangle 16" width="59.766" height="2.972" transform="translate(410.224 260.365)" fill="#fff"/>
    <rect id="Rectangle_17" data-name="Rectangle 17" width="59.766" height="2.972" transform="translate(410.224 270.601)" fill="#fff"/>
    <circle id="Ellipse_2" data-name="Ellipse 2" cx="3.962" cy="3.962" r="3.962" transform="translate(260.973 281.498)" fill="#fff"/>
    <circle id="Ellipse_3" data-name="Ellipse 3" cx="3.962" cy="3.962" r="3.962" transform="translate(274.511 281.498)" fill="#fff"/>
    <circle id="Ellipse_4" data-name="Ellipse 4" cx="3.962" cy="3.962" r="3.962" transform="translate(288.049 281.498)" fill="#fff"/>
    <rect id="Rectangle_18" data-name="Rectangle 18" width="59.766" height="16.84" transform="translate(410.224 304.942)" fill="#4d00d2"/>
    <path id="Path_26" data-name="Path 26" d="M388.223,594.882l-2.191,76.68-23.369,89.826s5.112,15.336,1.461,18.987S343.675,790.6,343.675,790.6l13.875-191.336Z" transform="translate(-243.316 -59.362)" fill="#2f2e41"/>
    <path id="Path_27" data-name="Path 27" d="M337.486,780s-8.334,18.334,3.334,20,65.559,6.111,62.226-3.334-43.892-18.334-43.892-18.334Z" transform="translate(-243.316 -59.362)" fill="#2f2e41"/>
    <path id="Path_28" data-name="Path 28" d="M306.431,526.965s8.763,47.469,14.606,55.5-2.921,66.456-2.921,66.456-13.145,83.983-7.3,97.128,4.382,8.763,3.651,16.066-2.191,13.145,0,19.718,2.191,5.842,2.921,9.494,0,23.369,0,23.369,31.4,10.954,36.514-5.112c0,0-7.3-10.224-5.112-18.257a97.259,97.259,0,0,0,3.651-24.83V751.164l33.593-125.61,8.033-45.278s-2.191-46.008-10.224-50.39S306.431,526.965,306.431,526.965Z" transform="translate(-243.316 -59.362)" fill="#2f2e41"/>
    <path id="Path_29" data-name="Path 29" d="M319.576,811.048s-10.954,24.1,4.382,26.29,86.174,8.033,81.792-4.382-57.693-24.1-57.693-24.1Z" transform="translate(-243.316 -59.362)" fill="#2f2e41"/>
    <circle id="Ellipse_5" data-name="Ellipse 5" cx="29.212" cy="29.212" r="29.212" transform="translate(60.931 198.887)" fill="#ffb9b9"/>
    <path id="Path_30" data-name="Path 30" d="M312.932,300.37l.544,37.305,35.814.121s-9.089-29.2-5.018-35.31S312.932,300.37,312.932,300.37Z" transform="translate(-243.316 -59.362)" fill="#ffb9b9"/>
    <path id="Path_31" data-name="Path 31" d="M366.314,358.269s-25.56-32.863-45.278-18.988-27.021,46.738-27.021,46.738l4.382,92.016s10.954,13.145,4.382,21.909-10.224,6.573-5.112,13.145,10.954,11.685,8.763,13.875,2.191,3.651,2.191,3.651l77.411,2.191s-2.191-2.921,4.382-11.685-1.461-20.448,0-24.83,2.921.73,3.651-9.494S366.314,358.269,366.314,358.269Z" transform="translate(-243.316 -59.362)" fill="#3f3d56"/>
    <path id="Path_32" data-name="Path 32" d="M359.011,546.683s1.461,18.257,12.415,21.178c4.108,1.1,7.189-.993,9.435-4.031a17.935,17.935,0,0,0,.573-20.121l-2.706-4.329Z" transform="translate(-243.316 -59.362)" fill="#ffb9b9"/>
    <path id="Path_33" data-name="Path 33" d="M291.46,321.389s-.73,14.606,0,16.8,1.461,4.382,0,6.573-.73,9.494.73,10.224-2.921,7.3-1.461,11.685,2.921,5.842,3.651,7.3,1.907,4.077,1.907,4.077,21.463-45.7,38.989-34.75,31.4,14.606,31.4,14.606S357.186,306.783,291.46,321.389Z" transform="translate(-243.316 -59.362)" fill="#3f3d56"/>
    <path id="Path_34" data-name="Path 34" d="M323.227,355.348s-23.369,2.191-21.909,32.863-2.191,78.871-2.191,78.871,40.166,61.344,46.738,65.726,7.3,3.651,6.573,7.3-1.461,6.573,1.461,9.494a25.219,25.219,0,0,0,5.842,4.382s23.369-8.033,21.178-15.336-12.415-18.987-12.415-18.987-17.527-28.481-18.257-32.863-.73-3.651-2.921-5.842-8.033-10.954-8.033-15.336V451.746l6.123-74.151a21.5,21.5,0,0,0-5.7-16.648C336.24,357.311,330.987,354.417,323.227,355.348Z" transform="translate(-243.316 -59.362)" fill="#3f3d56"/>
    <path id="Path_35" data-name="Path 35" d="M352.3,264.934a11.9,11.9,0,0,0,11.03-2.525c2.855-2.713,3.814-7.412,1.783-10.786-1.754-2.913-5.165-4.338-8.411-5.351a74.47,74.47,0,0,0-22.117-3.374c-3.576,0-7.309.3-10.369,2.154-1.514.915-2.8,2.173-4.293,3.116-2.752,1.734-6.057,2.311-9.079,3.516a23.29,23.29,0,0,0-13.273,14.056,28.062,28.062,0,0,0-1.29,6.6,36.175,36.175,0,0,0,3.156,17.931c4.075,8.885,11.831,16.356,12.926,26.069,4.175-3.5,5.4-9.383,8.632-13.772a17.855,17.855,0,0,1,9.748-6.616,5.676,5.676,0,0,0,2.952-1.319,4.891,4.891,0,0,0,.924-2.66l2-14.431c.408-2.937.959-6.147,3.213-8.073a11.424,11.424,0,0,1,4.786-2.077,77.184,77.184,0,0,1,12.492-2.037" transform="translate(-243.316 -59.362)" fill="#2f2e41"/>
    <path id="Path_36" data-name="Path 36" d="M302.68,477.514l41,53.2S305.926,499.159,302.68,477.514Z" transform="translate(-243.316 -59.362)" opacity="0.1"/>
    <path id="Path_37" data-name="Path 37" d="M98.713,359.249l-.388,50.244,23.81,35.715-19.481-40.044Z" opacity="0.1"/>
    <path id="Path_38" data-name="Path 38" d="M785.1,751.623l-4.745-3.525s-3.141,17.544.364,20.172,16.647,7.009,16.647,12.266,29.789,12.266,30.666,4.381-2.628-12.266-2.628-12.266S811.389,758.632,809.637,756s-6.133-7.885-6.133-7.885Z" transform="translate(-243.316 -59.362)" fill="#2f2e41"/>
    <path id="Path_39" data-name="Path 39" d="M855.2,533.459s-.131.771-.359,2.182c-.21,1.253-.5,3.023-.85,5.2-3.68,22.456-14.413,88.562-13.686,90.744.876,2.628,7.009,12.266,0,14.895a5.435,5.435,0,0,0-2.182,2.374,50.926,50.926,0,0,0-3.706,8.744c-4.179,12.126-8.648,31.533-11.232,44.973-1.13,5.905-1.9,10.654-2.129,13.142a7.149,7.149,0,0,0-.026,1.735c.876,3.5-5.257,15.771-7.885,19.275s-7.009,7.009-6.133,10.514-21.9,13.142-24.532,7.009-2.628-9.638-3.5-11.39-1.752-14.019,2.628-15.771,1.752-32.418,6.133-38.551c1.463-2.041,3.7-8.954,6.037-17.269.92-3.259,1.849-6.729,2.76-10.207,3.7-14.255,6.974-28.6,6.974-28.6l-.876-102.511,48.189-6.133,1.235,2.725,2.462,5.406Z" transform="translate(-243.316 -59.362)" fill="#2f2e41"/>
    <path id="Path_40" data-name="Path 40" d="M857.826,701.682s7.009-7.009,10.514,0,7.009,34.17,13.142,40.3,14.019,36.8,5.257,38.551-18.4-2.628-19.276-7.885-19.276-32.418-19.276-35.046,12.266-12.266,12.266-12.266Z" transform="translate(-243.316 -59.362)" fill="#2f2e41"/>
    <path id="Path_41" data-name="Path 41" d="M750.058,485.27s11.39,102.511,14.019,112.148,16.647,46.436,21.028,52.57,32.418,56.074,35.923,58.7,10.514,9.638,10.514,9.638,13.142,13.142,14.895,15.771,16.647-5.257,17.523-10.514-.876-14.019-1.752-17.523,1.752-8.762-.876-11.39-15.771-15.771-15.771-21.9-22.78-42.056-31.542-49.941-7.009-21.028-7.009-21.028V548.354L855.2,533.459s-2.628-42.056-8.762-42.056S759.7,477.385,750.058,485.27Z" transform="translate(-243.316 -59.362)" fill="#2f2e41"/>
    <circle id="Ellipse_6" data-name="Ellipse 6" cx="28.913" cy="28.913" r="28.913" transform="translate(548.797 221.763)" fill="#9f616a"/>
    <path id="Path_42" data-name="Path 42" d="M811.389,332.818s-3.5,13.142-7.885,16.647,11.39,18.4,11.39,18.4l29.789,1.752,5.257-16.647s-9.638-19.276-7.009-31.542S811.389,332.818,811.389,332.818Z" transform="translate(-243.316 -59.362)" fill="#9f616a"/>
    <path id="Path_43" data-name="Path 43" d="M799.123,347.713s7.885.876,9.638,3.5,14.019,10.514,23.656,8.762,15.771-4.381,17.523-3.5S855.2,375.75,855.2,375.75l-9.638,28.037,1.752,77.1,2.628,21.028s5.257-7.009-15.771-2.628-48.189-3.5-56.95-4.381-23.656-3.5-24.532-8.762,2.628-24.532,2.628-24.532l14.019-58.7,8.762-31.542Z" transform="translate(-243.316 -59.362)" fill="#3f3d56"/>
    <path id="Path_44" data-name="Path 44" d="M807.41,343.759s-7.411-3.931-10.04-.426-35.923,8.762-35.923,11.39-7.009,73.6-5.257,79.731-3.5,13.142-3.5,13.142l-6.133,26.285s-16.647,49.941-9.638,51.693,13.142,0,15.771,0,1.752-33.294,8.762-42.056,16.647-30.666,18.4-35.046,23.656-64.836,22.78-71.845S807.41,343.759,807.41,343.759Z" transform="translate(-243.316 -59.362)" fill="#fff"/>
    <path id="Path_45" data-name="Path 45" d="M843.807,347.713s7.009,0,7.885,1.752,9.638,13.142,13.142,15.771,15.771,14.019,15.771,16.647-25.409,21.9-25.409,21.9S844.683,455.481,849.94,473s13.142,59.579,9.638,62.207-11.39,3.5-11.39,0-5.257-41.18-9.638-49.065S821.027,428.32,826.284,414.3,843.807,347.713,843.807,347.713Z" transform="translate(-243.316 -59.362)" fill="#fff"/>
    <path id="Path_46" data-name="Path 46" d="M728.154,434.453s-.876,27.161,8.762,41.18a166.505,166.505,0,0,1,15.771,29.789s15.771-4.381,18.4-9.638,19.276-.876,19.276-2.628-20.152-10.514-21.9-12.266-7.885-1.752-11.39-5.257-4.381-11.39-4.381-11.39l-3.5-22.78Z" transform="translate(-243.316 -59.362)" fill="#9f616a"/>
    <path id="Path_47" data-name="Path 47" d="M801.113,292.211a16.662,16.662,0,0,1-6.484-1.485c-4.4-2.375-5.573-9.14-2.22-12.855a16.611,16.611,0,0,1,3.08-2.477l6.66-4.533c2.946-2,5.961-4.043,9.4-4.988a29.33,29.33,0,0,1,9.606-.567,64.906,64.906,0,0,1,18.4,3.346c5.873,2.156,11.352,5.763,14.909,10.909,5.639,8.159,5.716,19.163,2.611,28.582s-9.005,17.621-14.818,25.657l-3.016-14.717c-.269-1.311-.616-2.747-1.706-3.523-2.71-1.928-6.024,2.031-9.35,2.005-2.137-.016-3.931-1.774-4.741-3.752a21.381,21.381,0,0,1-1.05-6.3c-.4-4.509-1.973-10.782-6.242-13.268C812.168,291.933,805.585,292.617,801.113,292.211Z" transform="translate(-243.316 -59.362)" fill="#2f2e41"/>
    <path id="Path_48" data-name="Path 48" d="M802.735,534.166s2.959,85.595,4.711,88.223,0-88.492,0-88.492Z" transform="translate(-243.316 -59.362)" opacity="0.1"/>
    <path id="Path_49" data-name="Path 49" d="M768.457,354.722h-7.009s-29.789,40.3-26.285,42.932,0,9.638,0,9.638l-7.009,13.142s-8.762,7.885-6.133,9.638,6.133,8.762,6.133,8.762,17.523-2.628,22.78,7.885L762.3,432.373Z" transform="translate(-243.316 -59.362)" fill="#fff"/>
    <path id="Path_50" data-name="Path 50" d="M848.188,430.072s-19.276.876-41.18-13.142l-21.9-9.638S765.829,377.5,764.076,382.76,766.7,398.53,766.7,398.53,738,404,739.583,412.381c.326,1.726,14.855-2.461,14.855-2.461s-2.628,16.647,12.266,17.523,19.276-2.628,19.276-2.628,63.084,52.57,73.6,35.923S848.188,430.072,848.188,430.072Z" transform="translate(-243.316 -59.362)" fill="#9f616a"/>
    <path id="Path_51" data-name="Path 51" d="M870.968,378.379l9.638,3.5v26.285l3.5,5.257s-.876,10.514-3.5,13.142-7.885,1.752-6.133,7.885a33.209,33.209,0,0,1,.876,12.266s-15.771,20.152-16.647,17.523S845.559,429.2,843.807,429.2s17.523-50.817,17.523-50.817Z" transform="translate(-243.316 -59.362)" fill="#fff"/>
    <path id="Path_52" data-name="Path 52" d="M755.753,511.117s-9.059-8.762-4.53-9.2,20.3-9.2,22.929-4.819S755.753,511.117,755.753,511.117Z" transform="translate(-243.316 -59.362)" fill="#2f2e41"/>
    <path id="Path_53" data-name="Path 53" d="M454.006,744.009c0,22.469-13.356,30.314-29.834,30.314q-.573,0-1.143-.013c-.763-.016-1.52-.053-2.267-.1-14.871-1.052-26.424-9.3-26.424-30.2,0-21.625,27.634-48.912,29.71-50.932l0,0,.12-.116S454.006,721.541,454.006,744.009Z" transform="translate(-243.316 -59.362)" fill="#4d00d2"/>
    <path id="Path_54" data-name="Path 54" d="M423.085,770.886,434,755.639,423.058,772.56l-.029,1.75c-.763-.016-1.52-.053-2.267-.1l1.176-22.479-.009-.174.02-.033.111-2.123-10.966-16.963,11,15.37.025.451.889-16.985-9.388-17.528,9.5,14.547.925-35.212,0-.12v.116l-.155,27.767,9.347-11.008-9.385,13.4-.247,15.207,8.727-14.594-8.763,16.832-.138,8.454,12.669-20.313-12.717,23.263Z" transform="translate(-243.316 -59.362)" fill="#3f3d56"/>
  </g>
</svg>
